<?xml version="1.0" encoding="UTF-8"?>
<!-- Generator: Adobe Illustrator 17.0.0, SVG Export Plug-In . SVG Version: 6.00 Build 0)  -->
<!DOCTYPE svg PUBLIC "-//W3C//DTD SVG 1.1//EN" "http://www.w3.org/Graphics/SVG/1.1/DTD/svg11.dtd">
<svg version="1.1" id="Layer_1" xmlns="http://www.w3.org/2000/svg" xmlns:xlink="http://www.w3.org/1999/xlink" x="0px" y="0px" width="583.735px" height="323.469px" viewBox="0 0 583.735 323.469" enable-background="new 0 0 583.735 323.469" xml:space="preserve">
<path fill="#7C7C7C" d="M33.002,233.747h-14.96v-71.772h14.96V233.747z"/>
<path fill="#7C7C7C" d="M50.097,177.598c-2.526,0-4.592-0.749-6.201-2.249c-1.61-1.499-2.415-3.338-2.415-5.516  c0-2.241,0.804-4.071,2.415-5.492c1.609-1.42,3.676-2.131,6.201-2.131c2.556,0,4.632,0.711,6.226,2.131  c1.594,1.42,2.391,3.251,2.391,5.492c0,2.273-0.798,4.135-2.391,5.586C54.729,176.872,52.653,177.598,50.097,177.598z   M57.482,233.747h-14.96v-48.48h14.96V233.747z"/>
<path fill="#7C7C7C" d="M103.741,230.811c-3.378,1.957-8.254,2.935-14.629,2.935c-7.449,0-13.478-2.256-18.085-6.77  c-4.609-4.513-6.912-10.337-6.912-17.47c0-8.238,2.469-14.731,7.41-19.482c4.939-4.75,11.543-7.125,19.813-7.125  c5.712,0,9.847,0.758,12.404,2.273v12.687c-3.125-2.335-6.613-3.503-10.463-3.503c-4.293,0-7.693,1.255-10.202,3.764  c-2.509,2.51-3.764,5.973-3.764,10.392c0,4.293,1.199,7.662,3.598,10.108c2.398,2.446,5.697,3.669,9.895,3.669  c3.724,0,7.37-1.168,10.937-3.503V230.811z"/>
<path fill="#7C7C7C" d="M155.56,212.584h-31.625c0.504,7.039,4.939,10.558,13.303,10.558c5.333,0,10.021-1.262,14.061-3.788v10.794  c-4.483,2.399-10.306,3.598-17.47,3.598c-7.828,0-13.903-2.169-18.227-6.509c-4.324-4.34-6.486-10.392-6.486-18.157  c0-8.048,2.335-14.423,7.007-19.127c4.671-4.702,10.415-7.054,17.233-7.054c7.07,0,12.538,2.099,16.405,6.297  c3.866,4.198,5.799,9.895,5.799,17.091V212.584z M141.688,203.4c0-6.944-2.809-10.416-8.427-10.416  c-2.399,0-4.474,0.995-6.225,2.983c-1.752,1.988-2.817,4.466-3.196,7.433H141.688z"/>
<path fill="#7C7C7C" d="M209.746,233.747h-14.913v-26.938c0-7.511-2.683-11.268-8.049-11.268c-2.588,0-4.719,0.994-6.391,2.982  c-1.673,1.988-2.509,4.514-2.509,7.575v27.648h-14.96v-48.48h14.96v7.67h0.19c3.566-5.901,8.758-8.853,15.575-8.853  c10.731,0,16.097,6.66,16.097,19.979V233.747z"/>
<path fill="#7C7C7C" d="M219.947,231.285v-12.119c2.462,1.483,4.916,2.588,7.362,3.313c2.445,0.727,4.758,1.089,6.935,1.089  c2.652,0,4.742-0.362,6.274-1.089c1.53-0.726,2.296-1.83,2.296-3.313c0-0.947-0.347-1.736-1.042-2.367  c-0.695-0.631-1.586-1.183-2.675-1.657c-1.089-0.473-2.281-0.9-3.575-1.278c-1.294-0.379-2.541-0.805-3.74-1.279  c-1.925-0.726-3.621-1.507-5.089-2.343c-1.468-0.836-2.699-1.806-3.693-2.911c-0.994-1.105-1.751-2.383-2.273-3.835  c-0.521-1.451-0.781-3.173-0.781-5.161c0-2.714,0.592-5.049,1.775-7.007c1.184-1.957,2.762-3.558,4.735-4.805  c1.972-1.246,4.229-2.162,6.77-2.746c2.54-0.584,5.184-0.876,7.93-0.876c2.146,0,4.323,0.166,6.533,0.497  c2.209,0.332,4.387,0.813,6.533,1.444v11.551c-1.894-1.104-3.922-1.933-6.084-2.485c-2.163-0.552-4.284-0.828-6.367-0.828  c-0.979,0-1.902,0.087-2.769,0.26c-0.869,0.173-1.633,0.426-2.297,0.757c-0.663,0.332-1.183,0.758-1.562,1.279  c-0.379,0.521-0.568,1.113-0.568,1.775c0,0.884,0.284,1.642,0.852,2.273c0.568,0.632,1.309,1.176,2.225,1.633  c0.915,0.458,1.933,0.869,3.054,1.231c1.12,0.363,2.232,0.734,3.338,1.113c1.988,0.694,3.788,1.452,5.397,2.272  c1.61,0.822,2.99,1.784,4.143,2.888c1.152,1.105,2.036,2.399,2.652,3.882c0.615,1.484,0.923,3.251,0.923,5.303  c0,2.872-0.623,5.326-1.87,7.362c-1.247,2.036-2.905,3.693-4.971,4.971c-2.068,1.279-4.45,2.21-7.149,2.794  c-2.698,0.584-5.5,0.876-8.404,0.876C229.431,233.747,224.492,232.926,219.947,231.285z"/>
<path fill="#47C6EF" d="M351.449,211.049c-1.277-1.16-2.837-2.213-4.641-3.132c-1.736-0.885-3.72-1.755-5.891-2.586  c-1.606-0.63-3.044-1.214-4.274-1.737c-1.163-0.494-2.155-1.048-2.948-1.644c-0.725-0.542-1.279-1.164-1.646-1.846  c-0.352-0.657-0.531-1.517-0.531-2.557c0-0.786,0.177-1.506,0.527-2.145c0.36-0.659,0.884-1.237,1.557-1.721  c0.711-0.51,1.587-0.915,2.604-1.203c1.047-0.297,2.249-0.448,3.573-0.448c4.359,0,8.261,1.108,11.598,3.293l2.013,1.314v-11.115  l-0.779-0.34c-3.465-1.517-7.431-2.287-11.79-2.287c-2.473,0-4.905,0.319-7.227,0.945c-2.355,0.632-4.487,1.592-6.336,2.854  c-1.885,1.284-3.416,2.904-4.552,4.813c-1.158,1.948-1.745,4.203-1.745,6.702c0,2.016,0.31,3.819,0.92,5.358  c0.616,1.545,1.542,2.944,2.751,4.154c1.176,1.175,2.648,2.24,4.379,3.164c1.674,0.894,3.623,1.782,5.799,2.643  c1.537,0.598,2.974,1.171,4.306,1.717c1.25,0.516,2.345,1.101,3.255,1.737c0.852,0.594,1.531,1.277,2.02,2.032  c0.442,0.68,0.666,1.549,0.666,2.58c0,2.369-0.925,5.517-8.926,5.517c-4.776,0-9.214-1.492-13.194-4.434l-2.073-1.528v11.695  l0.696,0.363c3.832,2.016,8.401,3.039,13.578,3.039c2.613,0,5.154-0.299,7.556-0.89c2.436-0.602,4.628-1.538,6.513-2.783  c1.921-1.268,3.481-2.89,4.636-4.82c1.176-1.961,1.771-4.289,1.771-6.917c0-2.133-0.365-4.018-1.087-5.607  C353.808,213.658,352.773,212.248,351.449,211.049z"/>
<path fill="#47C6EF" d="M387.884,182.896c-6.479,0-11.73,2.391-15.648,7.112v-5.977h-10.366v73.381h10.366v-26.96  c3.455,3.85,7.959,5.798,13.423,5.798c7.228,0,13.016-2.623,17.203-7.798c4.119-5.091,6.208-11.92,6.208-20.299  c0-7.562-1.866-13.706-5.545-18.265C399.78,185.249,394.517,182.896,387.884,182.896z M398.515,208.012  c0,6.09-1.26,10.878-3.745,14.232c-2.396,3.232-5.763,4.871-10.009,4.871c-3.615,0-6.632-1.271-8.967-3.777  c-2.36-2.53-3.557-5.664-3.557-9.315v-6.771c0-4.387,1.278-8.072,3.797-10.955c2.476-2.831,5.81-4.267,9.909-4.267  c3.83,0,6.899,1.384,9.123,4.113C397.354,198.955,398.515,202.946,398.515,208.012z"/>
<path fill="#47C6EF" d="M437.741,183.181c-3.109,0-5.956,1.065-8.461,3.168c-1.182,0.994-2.223,2.183-3.116,3.555v-5.872h-10.366  v51.082h10.366V209.1c0-5.096,1.042-9.143,3.096-12.03c1.957-2.747,4.396-4.14,7.249-4.14c2.253,0,3.961,0.435,5.078,1.293  l2.093,1.606v-11.562l-0.806-0.326C441.65,183.437,439.922,183.181,437.741,183.181z"/>
<path fill="#47C6EF" d="M456.18,167.885c-1.736,0-3.237,0.611-4.463,1.818c-1.232,1.214-1.857,2.743-1.857,4.548  c0,1.812,0.627,3.338,1.864,4.534c1.225,1.185,2.724,1.785,4.456,1.785c1.768,0,3.294-0.62,4.534-1.841  c1.247-1.227,1.879-2.732,1.879-4.478c0-1.809-0.635-3.343-1.887-4.557C459.466,168.494,457.944,167.885,456.18,167.885z"/>
<rect x="451.043" y="184.031" fill="#47C6EF" width="10.367" height="51.082"/>
<path fill="#47C6EF" d="M495.078,182.896c-6.091,0-11.056,2.244-14.796,6.677v-5.542h-10.366v51.082h10.366v-28.949  c0-4.106,1.175-7.539,3.491-10.199c2.272-2.611,5.184-3.934,8.653-3.934c6.8,0,9.967,4.491,9.967,14.133v28.949h10.368v-30.937  c0-6.747-1.518-12.017-4.51-15.668C505.196,184.785,500.764,182.896,495.078,182.896z"/>
<path fill="#47C6EF" d="M555.327,184.031v4.346c-3.314-3.639-7.817-5.481-13.422-5.481c-7.26,0-13.071,2.614-17.272,7.771  c-4.136,5.073-6.233,11.96-6.233,20.467c0,7.544,1.961,13.666,5.827,18.197c3.918,4.591,9.149,6.919,15.547,6.919  c6.498,0,11.718-2.281,15.553-6.785v1.506c0,12.098-5.273,17.731-16.595,17.731c-4.711,0-9.755-1.474-14.992-4.382l-1.932-1.073  v10.771l0.713,0.365c4.646,2.355,10.132,3.549,16.306,3.549c17.827,0,26.866-9.421,26.866-28.002v-45.9H555.327z M555.327,204.744  v7.148c0,4.48-1.269,8.189-3.77,11.023c-2.458,2.786-5.705,4.199-9.652,4.199c-3.859,0-6.999-1.47-9.332-4.367  c-2.4-2.983-3.618-7.064-3.618-12.132c0-5.956,1.278-10.617,3.797-13.854c2.443-3.139,5.889-4.731,10.241-4.731  c3.493,0,6.448,1.25,8.784,3.715C554.133,198.226,555.327,201.254,555.327,204.744z"/>
<path fill="#47C6EF" d="M346.48,106.228c-0.608,0-1.225,0.018-1.843,0.045L344.1,106.3l-0.125-0.519  c-5.698-23.696-26.138-40.245-49.691-40.245c-14.948,0-29.108,6.754-38.849,18.526l-0.286,0.349l-0.42-0.143  c-6.029-2.049-12.327-2.907-18.713-2.54c-25.977,1.449-46.757,22.855-48.313,49.789c-0.555,9.455,1.315,18.874,5.385,27.229  c3.131,6.414,9.464,10.394,16.531,10.394h56.674c2.596-3.001,5.82-5.479,9.527-7.221l0.099-16.807  c-1.577-0.554-3.021-1.465-4.233-2.691c-2.097-2.122-3.242-4.927-3.225-7.899c0.018-3.069,1.288-5.851,3.322-7.861  c-2.679-2.053-4.401-5.293-4.38-8.921c0.032-5.386,3.918-9.887,9.023-10.882c1.247-5.588,6.256-9.786,12.203-9.786l0.058,0h0.016  c3.331,0.02,6.461,1.34,8.812,3.719c2.351,2.379,3.635,5.524,3.616,8.855l-0.307,52.419c3.579,1.734,6.689,4.161,9.211,7.075h60.082  c10.224,0,18.57-8.462,18.615-18.875v-0.206C388.728,125.89,369.773,106.228,346.48,106.228z"/>
<path fill="#7C7C7C" d="M295.432,165.67l0.328-56.055c0.023-3.924-3.169-7.153-7.092-7.176c-0.014,0-0.028,0-0.042,0  c-3.905,0-7.111,3.183-7.134,7.092l-0.015,2.594c-0.314-0.055-0.635-0.091-0.964-0.093l-1.928-0.011c-0.011,0-0.023,0-0.034,0  c-3.166,0-5.766,2.58-5.784,5.751c-0.019,3.181,2.569,5.799,5.75,5.818l1.928,0.011c0.009,0,0.019,0,0.028,0  c0.319,0,0.631-0.032,0.937-0.082l-0.031,5.294l-1.735-0.01c-0.011,0-0.023,0-0.034,0c-3.166,0-5.766,2.581-5.784,5.751  c-0.019,3.181,2.569,5.799,5.75,5.818l1.735,0.01l-0.148,25.206c-9.521,2.966-16.459,11.818-16.52,22.322  c-0.003,0.531,0.017,1.056,0.05,1.577c0.009,0.139,0.022,0.277,0.033,0.416c0.026,0.33,0.064,0.656,0.105,0.981  c1.035-1.607,2.228-3.095,3.575-4.451c5.622-5.66,12.612-8.529,20.778-8.529c8.49,0,15.246,2.661,20.08,7.909  c0.884,0.96,1.66,2.01,2.385,3.103c0.011-0.244,0.038-0.484,0.04-0.731C311.751,177.68,304.918,168.747,295.432,165.67z"/>
<path fill="#7C7C7C" d="M311.39,206.289c0-0.362-0.025-0.7-0.037-1.049c-0.088-3.111-0.525-5.921-1.362-8.445  c-0.962-2.923-2.436-5.459-4.397-7.595c-3.873-4.197-9.344-6.296-16.415-6.296c-6.808,0-12.555,2.348-17.227,7.046  c-2.249,2.274-3.948,4.934-5.109,7.97c-0.874,2.298-1.449,4.809-1.711,7.533c-0.112,1.174-0.187,2.373-0.187,3.623  c0,7.77,2.161,13.829,6.483,18.163c4.322,4.335,10.406,6.508,18.226,6.508c7.17,0,12.992-1.199,17.476-3.598v-10.793  c-4.047,2.523-8.732,3.785-14.066,3.785c-6.933,0-11.168-2.436-12.692-7.283c-0.312-0.987-0.525-2.074-0.612-3.273h31.63V206.289z   M288.167,204.457c-5.085,0-9.207-2.667-9.207-5.957c0-3.29,4.122-5.957,9.207-5.957c5.085,0,9.207,2.667,9.207,5.957  C297.374,201.79,293.252,204.457,288.167,204.457z"/>
</svg>